 http://www.traileraddict.com/trailer/moon/trailer

Moon is a 2009 science fiction/psychological thriller film about a solitary lunar employee who experiences a personal crisis as the end of his three-year stint nears. It is the feature debut of director Duncan Jones. Sam Rockwell stars as the employee and Kevin Spacey voices his robot companion….
 
http://www.freebase.com/view/guid/9202a8c04000641f8000000009ee4f56

imdb rating: 8.0/10 (32,663 votes) 
http://www.imdb.com/title/tt1182345/
genre: Drama, Mystery, Sci-Fi, Thriller

Moon.2009.BluRay.1080p.DTS.×264.dxva-EuReKA

Complete name : Moon.2009.BluRay.1080p.DTS.×264.dxva-EuReKA.mkv
Format : Matroska
File size : 9.37 GiB
Duration : 1h 37mn
Overall bit rate : 13.8 Mbps
Encoded date : UTC 2009-11-21 14:28:56
Writing application : mkvmerge v2.9.8 (’C’est le bon’) built on Aug 13 2009 12:49:06
Writing library : libebml v0.7.7 + libmatroska v0.8.1

Video
ID : 1
Format : AVC
Format/Info : Advanced Video Codec
Format profile : High@L4.1
Format settings, CABAC : Yes
Format settings, ReFrames : 4 frames
Muxing mode : Container profile=Unknown@4.1
Codec ID : V_MPEG4/ISO/AVC
Duration : 1h 37mn
Bit rate : 12.0 Mbps
Nominal bit rate : 12.3 Mbps
Width : 1 920 pixels
Height : 800 pixels
Display aspect ratio : 2.40:1
Frame rate : 23.976 fps
Resolution : 8 bits
Colorimetry : 4:2:0
Scan type : Progressive
Bits/(Pixel*Frame) : 0.327
Stream size : 8.15 GiB (87%)
Title : x264 – 2 passes @ 50% of the original bitrate
Writing library : x264 core 78 r1309M 4d77de8
Encoding settings : cabac=1 / ref=4 / deblock=1:-3:-3 / analyse=0×3:0×113 /
me=umh / subme=10 / psy=1 / psy_rd=1.0:0.0 / mixed_ref=1 / me_range=32 / chroma_me=1 / trellis=2 /
8×8dct=1 / cqm=0 / deadzone=21,11 / chroma_qp_offset=-2 / threads=12 / nr=0 / decimate=1 / mbaff=0 /
constrained_intra=0 / bframes=3 / b_pyramid=0 / b_adapt=2 / b_bias=0 / direct=2 / wpredb=1 /
keyint=250 / keyint_min=25 / scenecut=40 / rc_lookahead=0 / rc=2pass / mbtree=0 / bitrate=12297 /
ratetol=1.0 / qcomp=0.80 / qpmin=10 / qpmax=51 / qpstep=4 / cplxblur=20.0 / qblur=0.5 /
vbv_maxrate=38000 / vbv_bufsize=30000 / ip_ratio=1.40 / pb_ratio=1.30 / aq=1:1.00
Language : English

Audio
ID : 2
Format : DTS
Format/Info : Digital Theater Systems
Codec ID : A_DTS
Duration : 1h 37mn
Bit rate mode : Constant
Bit rate : 1 510 Kbps
Channel(s) : 6 channels
Channel positions : Front: L C R, Surround: L R, LFE
Sampling rate : 48.0 KHz
Resolution : 24 bits
Stream size : 1.02 GiB (11%)
Title : DTS – 1536 kbit/sec
Language : English

Text
ID : 3
Format : UTF-8
Codec ID : S_TEXT/UTF8
Codec ID/Info : UTF-8 Plain Text
Language : English